<svg width="33" height="32" viewBox="0 0 33 32" fill="none" xmlns="http://www.w3.org/2000/svg">
<g clip-path="url(#clip0_102_197)">
<path d="M32.3425 9.48391C32.6254 9.83694 32.7314 10.2606 32.6608 10.7548L31.317 18.4508C31.2699 18.851 31.0871 19.1804 30.7689 19.4393C30.4506 19.6982 30.0912 19.8276 29.6903 19.8276H10.0997L9.71075 22.0164H28.382C28.8299 22.0164 29.2187 22.1752 29.5489 22.4929C29.879 22.8107 30.0439 23.2049 30.0439 23.6756C30.0439 24.1463 29.8789 24.5405 29.5489 24.8582C29.2187 25.1759 28.8299 25.3348 28.382 25.3348H7.73048C7.23541 25.3348 6.81106 25.1348 6.45744 24.7348C6.12739 24.3346 5.99773 23.8756 6.06846 23.358L6.95251 18.5569L5.60875 5.07121L1.78964 3.87093C1.34172 3.72972 1.01757 3.45901 0.817182 3.05897C0.616797 2.65882 0.575541 2.23524 0.693415 1.78808C0.834864 1.34091 1.11187 1.01731 1.52442 0.81726C1.93698 0.617213 2.35543 0.576026 2.77978 0.693701L7.65975 2.24701C7.96622 2.34115 8.21965 2.51766 8.42004 2.77655C8.62042 3.03543 8.74419 3.32968 8.79134 3.65917L9.07424 6.34216L31.2109 8.81334C31.706 8.88377 32.0832 9.10735 32.3425 9.48391ZM10.2412 26.2527C10.9485 26.2527 11.5496 26.4998 12.0447 26.9941C12.5398 27.4882 12.7873 28.0885 12.7873 28.7946C12.7873 29.5004 12.5398 30.1066 12.0447 30.6126C11.5496 31.1186 10.9485 31.3716 10.2412 31.3716C9.534 31.3716 8.93285 31.1186 8.43778 30.6126C7.94271 30.1067 7.69517 29.5006 7.69517 28.7946C7.69517 28.0885 7.94271 27.4883 8.43778 26.9941C8.93279 26.4998 9.53394 26.2527 10.2412 26.2527ZM25.3408 26.2527C26.0479 26.2527 26.6493 26.4998 27.1443 26.9941C27.6392 27.4882 27.8869 28.0885 27.8869 28.7946C27.8869 29.5004 27.6393 30.1066 27.1443 30.6126C26.6493 31.1186 26.0479 31.3716 25.3408 31.3716C24.6336 31.3716 24.0323 31.1186 23.5374 30.6126C23.0423 30.1067 22.7946 29.5006 22.7946 28.7946C22.7946 28.0885 23.0422 27.4883 23.5374 26.9941C24.0324 26.4998 24.6336 26.2527 25.3408 26.2527Z" fill="white"/>
</g>
<defs>
<clipPath id="clip0_102_197">
<rect width="32.054" height="32" fill="white" transform="translate(0.62793)"/>
</clipPath>
</defs>
</svg>
