<svg width="50" height="50" viewBox="0 0 50 50" fill="none" xmlns="http://www.w3.org/2000/svg">
<path d="M21.9687 46C21.496 46 21.0438 45.7922 20.7355 45.3765L18.6598 42.5708C18.2282 41.9889 17.6528 41.6563 17.0363 41.6148C16.4197 41.5732 15.8031 41.8642 15.3099 42.3838C12.3299 45.6051 10.0692 45.335 8.98001 44.9193C7.87022 44.4829 6 43.0488 6 38.435V15.0334C6 5.80572 8.63061 3 17.2417 3H32.7583C41.3694 3 44 5.80572 44 15.0334V23.8869C44 24.739 43.3012 25.4456 42.4586 25.4456C41.616 25.4456 40.9173 24.739 40.9173 23.8869V15.0334C40.9173 7.53071 39.6225 6.11745 32.7583 6.11745H17.2417C10.3775 6.11745 9.08274 7.53071 9.08274 15.0334V38.435C9.08274 40.6172 9.61709 41.8226 10.1103 42.0096C10.4803 42.1551 11.4873 41.9473 13.0493 40.2639C14.1796 39.0585 15.6593 38.4142 17.2007 38.4973C18.7215 38.5804 20.1601 39.391 21.126 40.7004L23.2223 43.506C23.7361 44.1919 23.5922 45.1687 22.914 45.6883C22.6057 45.9169 22.2769 46 21.9687 46Z" fill="white"/>
<path d="M37.5 46C32.8089 46 29 42.4152 29 38C29 33.5848 32.8089 30 37.5 30C42.1912 30 46 33.5848 46 38C46 42.4152 42.1912 46 37.5 46ZM37.5 33.038C34.595 33.038 32.2279 35.2659 32.2279 38C32.2279 40.7342 34.595 42.962 37.5 42.962C40.4051 42.962 42.7721 40.7342 42.7721 38C42.7721 35.2659 40.4051 33.038 37.5 33.038Z" fill="white"/>
<path d="M45.502 47C45.1212 47 44.7405 46.8599 44.4399 46.5596L42.4359 44.5576C41.8547 43.977 41.8547 43.016 42.4359 42.4354C43.017 41.8549 43.979 41.8549 44.5601 42.4354L46.5641 44.4374C47.1453 45.018 47.1453 45.979 46.5641 46.5596C46.2635 46.8599 45.8828 47 45.502 47Z" fill="white"/>
<path d="M32.5 16H16.5C15.68 16 15 15.32 15 14.5C15 13.68 15.68 13 16.5 13H32.5C33.32 13 34 13.68 34 14.5C34 15.32 33.32 16 32.5 16Z" fill="white"/>
<path d="M30.5 24H18.5C17.68 24 17 23.32 17 22.5C17 21.68 17.68 21 18.5 21H30.5C31.32 21 32 21.68 32 22.5C32 23.32 31.32 24 30.5 24Z" fill="white"/>
</svg>
