<svg width="20" height="12" viewBox="0 0 20 12" fill="none" xmlns="http://www.w3.org/2000/svg">
<path d="M19 1.5H1C0.801088 1.5 0.610322 1.42098 0.46967 1.28033C0.329018 1.13968 0.25 0.948912 0.25 0.75C0.25 0.551088 0.329018 0.360322 0.46967 0.21967C0.610322 0.0790178 0.801088 0 1 0H19C19.1989 0 19.3897 0.0790178 19.5303 0.21967C19.671 0.360322 19.75 0.551088 19.75 0.75C19.75 0.948912 19.671 1.13968 19.5303 1.28033C19.3897 1.42098 19.1989 1.5 19 1.5Z" fill="white"/>
<path d="M19 6.75H1C0.801088 6.75 0.610322 6.67098 0.46967 6.53033C0.329018 6.38968 0.25 6.19891 0.25 6C0.25 5.80109 0.329018 5.61032 0.46967 5.46967C0.610322 5.32902 0.801088 5.25 1 5.25H19C19.1989 5.25 19.3897 5.32902 19.5303 5.46967C19.671 5.61032 19.75 5.80109 19.75 6C19.75 6.19891 19.671 6.38968 19.5303 6.53033C19.3897 6.67098 19.1989 6.75 19 6.75Z" fill="white"/>
<path d="M19 12H1C0.801088 12 0.610322 11.921 0.46967 11.7803C0.329018 11.6397 0.25 11.4489 0.25 11.25C0.25 11.0511 0.329018 10.8603 0.46967 10.7197C0.610322 10.579 0.801088 10.5 1 10.5H19C19.1989 10.5 19.3897 10.579 19.5303 10.7197C19.671 10.8603 19.75 11.0511 19.75 11.25C19.75 11.4489 19.671 11.6397 19.5303 11.7803C19.3897 11.921 19.1989 12 19 12Z" fill="white"/>
</svg>
