<svg width="50" height="50" viewBox="0 0 50 50" fill="none" xmlns="http://www.w3.org/2000/svg">
<g clip-path="url(#clip0_211_39)">
<path d="M41.7273 18.25H35.4545V10H6.18182C3.87136 10 2 11.8459 2 14.125V36.8125H6.18182C6.18182 40.2259 8.99409 43 12.4545 43C15.915 43 18.7273 40.2259 18.7273 36.8125H31.2727C31.2727 40.2259 34.085 43 37.5455 43C41.0059 43 43.8182 40.2259 43.8182 36.8125H48V26.5L41.7273 18.25ZM12.4545 39.9062C10.7191 39.9062 9.31818 38.5244 9.31818 36.8125C9.31818 35.1006 10.7191 33.7188 12.4545 33.7188C14.19 33.7188 15.5909 35.1006 15.5909 36.8125C15.5909 38.5244 14.19 39.9062 12.4545 39.9062ZM40.6818 21.3438L44.7905 26.5H35.4545V21.3438H40.6818ZM37.5455 39.9062C35.81 39.9062 34.4091 38.5244 34.4091 36.8125C34.4091 35.1006 35.81 33.7188 37.5455 33.7188C39.2809 33.7188 40.6818 35.1006 40.6818 36.8125C40.6818 38.5244 39.2809 39.9062 37.5455 39.9062Z" fill="white"/>
</g>
<defs>
<clipPath id="clip0_211_39">
<rect width="50" height="50" fill="white"/>
</clipPath>
</defs>
</svg>
