<svg width="42" height="42" viewBox="0 0 42 42" fill="none" xmlns="http://www.w3.org/2000/svg">
<path d="M20.9998 0.166626C32.5061 0.166626 41.8332 9.49371 41.8332 21C41.8332 32.5062 32.5061 41.8333 20.9998 41.8333C9.49359 41.8333 0.166504 32.5062 0.166504 21C0.166504 9.49371 9.49359 0.166626 20.9998 0.166626ZM20.9998 4.33329C16.5796 4.33329 12.3403 6.08924 9.21473 9.21485C6.08912 12.3405 4.33317 16.5797 4.33317 21C4.33317 25.4202 6.08912 29.6595 9.21473 32.7851C12.3403 35.9107 16.5796 37.6666 20.9998 37.6666C25.4201 37.6666 29.6593 35.9107 32.785 32.7851C35.9106 29.6595 37.6665 25.4202 37.6665 21C37.6665 16.5797 35.9106 12.3405 32.785 9.21485C29.6593 6.08924 25.4201 4.33329 20.9998 4.33329ZM20.9998 18.9166C25.1665 18.9166 28.6394 19.6104 31.4165 21C31.4165 23.7626 30.319 26.4122 28.3655 28.3657C26.412 30.3192 23.7625 31.4166 20.9998 31.4166C18.2372 31.4166 15.5876 30.3192 13.6341 28.3657C11.6806 26.4122 10.5832 23.7626 10.5832 21C13.3603 19.6104 16.8332 18.9166 20.9998 18.9166ZM13.7082 10.5833C14.9089 10.583 16.0727 10.9977 17.0029 11.7569C17.933 12.5162 18.5722 13.5735 18.8123 14.75H8.604C8.84414 13.5735 9.48336 12.5162 10.4135 11.7569C11.3436 10.9977 12.5075 10.583 13.7082 10.5833ZM28.2915 10.5833C29.4922 10.583 30.6561 10.9977 31.5862 11.7569C32.5163 12.5162 33.1555 13.5735 33.3957 14.75H23.1873C23.4275 13.5735 24.0667 12.5162 24.9968 11.7569C25.9269 10.9977 27.0908 10.583 28.2915 10.5833Z" fill="#5AA93F"/>
</svg>
