<svg width="26" height="26" viewBox="0 0 26 26" fill="none" xmlns="http://www.w3.org/2000/svg">
<path d="M12.2891 4.19883L13 5.57608L13.7109 4.19883C14.2395 3.17462 15.0072 2.32515 15.9308 1.73093C16.8466 1.14174 17.8854 0.822745 18.944 0.800366C20.6491 0.886941 22.2676 1.69022 23.4435 3.05786C24.6268 4.43409 25.2618 6.26735 25.1953 8.15819L25.1948 8.17225V8.18632C25.1948 9.95988 24.5225 11.8626 23.4381 13.7642C22.3578 15.6587 20.901 17.4954 19.4099 19.1215C16.4288 22.3725 13.3808 24.7066 13.1423 24.8878C13.1423 24.8878 13.1422 24.8879 13.1421 24.8879L13 24.9958L12.8597 24.8894C12.8595 24.8891 12.8592 24.8889 12.8589 24.8887C12.6135 24.7012 9.5684 22.3683 6.59004 19.1206C5.099 17.4946 3.64217 15.6582 2.56184 13.7639C1.47749 11.8625 0.805242 9.95987 0.805242 8.18632V8.17225L0.804748 8.15819C0.738209 6.26735 1.37317 4.43409 2.55649 3.05786C3.73243 1.69022 5.3509 0.886941 7.05597 0.800366C8.11465 0.822745 9.15337 1.14174 10.0692 1.73093C10.9928 2.32515 11.7605 3.17462 12.2891 4.19883Z" fill="white" stroke="#6D7280" stroke-width="1.6"/>
</svg>
