<svg width="50" height="50" viewBox="0 0 50 50" fill="none" xmlns="http://www.w3.org/2000/svg">
<path d="M25.0002 6.25001C14.6448 6.25001 6.25016 14.6447 6.25016 25V43.75H25.0002C35.3555 43.75 43.7502 35.3554 43.7502 25C43.7502 14.6447 35.3555 6.25001 25.0002 6.25001ZM2.0835 25C2.0835 12.3435 12.3436 2.08334 25.0002 2.08334C37.6567 2.08334 47.9168 12.3435 47.9168 25C47.9168 37.6565 37.6567 47.9167 25.0002 47.9167H4.16683C3.01624 47.9167 2.0835 46.9839 2.0835 45.8333V25ZM16.6668 20.8333C16.6668 19.6828 17.5996 18.75 18.7502 18.75H31.2502C32.4008 18.75 33.3335 19.6828 33.3335 20.8333C33.3335 21.9839 32.4008 22.9167 31.2502 22.9167H18.7502C17.5996 22.9167 16.6668 21.9839 16.6668 20.8333ZM18.7502 27.0833C17.5996 27.0833 16.6668 28.0161 16.6668 29.1667C16.6668 30.3173 17.5996 31.25 18.7502 31.25H31.2502C32.4008 31.25 33.3335 30.3173 33.3335 29.1667C33.3335 28.0161 32.4008 27.0833 31.2502 27.0833H18.7502Z" fill="white"/>
</svg>
