<svg width="145" height="187" viewBox="0 0 145 187" fill="none" xmlns="http://www.w3.org/2000/svg">
<path d="M117.702 183.569C115.524 184.475 111.17 187.18 109.115 185.992C106.341 184.389 109.418 182.021 111.381 180.491C115.242 177.483 122.739 175.016 125.382 171.362C88.6896 169.874 56.5735 157.54 33.4243 135.262C10.3996 113.104 -5.66905 80.9048 2.57083 47.5868C6.60377 31.2795 15.6407 15.3723 31.7235 4.10029C33.1035 3.13304 39.7134 -1.89205 40.4917 0.832582C40.8975 2.25293 32.3495 8.64183 30.9962 9.96407C23.9599 16.8372 18.5383 24.2132 14.6294 32.4897C1.31068 60.6908 8.93846 91.1706 24.8179 113.393C35.3371 128.114 50.297 140.606 67.5759 149.5C76.4946 154.091 86.2434 157.965 96.552 160.359C105.247 162.378 119.408 166.005 129.067 163.698C125.186 157.739 113.801 155.756 108.814 150.439C106.172 147.623 106.592 142.963 112.214 143.345C116.771 143.655 121.681 148.727 124.985 150.958C128.671 153.447 132.225 156.038 135.571 158.852C138.026 160.916 144.449 164.322 144.229 167.696C143.841 173.662 123.225 181.099 117.702 183.569C120.007 182.539 115.425 184.517 117.702 183.569Z" fill="white"/>
</svg>
