<svg width="30" height="30" viewBox="0 0 30 30" fill="none" xmlns="http://www.w3.org/2000/svg">
<path fill-rule="evenodd" clip-rule="evenodd" d="M29.4375 24.9375L22.2938 17.7563C23.653 15.8596 24.3811 13.5834 24.375 11.25C24.375 5.04375 19.3312 0 13.125 0C6.91875 0 1.875 5.04375 1.875 11.25C1.875 17.4562 6.91875 22.5 13.125 22.5C15.5625 22.5 17.775 21.7313 19.6313 20.4188L26.8125 27.5625C27.1688 27.9375 27.6562 28.125 28.125 28.125C28.5938 28.125 29.1 27.9562 29.4375 27.5625C29.6113 27.389 29.7492 27.183 29.8433 26.9562C29.9374 26.7293 29.9858 26.4862 29.9858 26.2406C29.9858 25.9951 29.9374 25.7519 29.8433 25.5251C29.7492 25.2983 29.6113 25.0922 29.4375 24.9188V24.9375ZM13.125 20.0625C8.26875 20.0625 4.3125 16.1063 4.3125 11.25C4.3125 6.39375 8.26875 2.4375 13.125 2.4375C17.9813 2.4375 21.9375 6.39375 21.9375 11.25C21.9375 16.1063 17.9813 20.0625 13.125 20.0625Z" fill="white"/>
</svg>
