<svg width="14" height="14" viewBox="0 0 14 14" fill="none" xmlns="http://www.w3.org/2000/svg">
<path d="M1.74935 2.62533V3.79583C1.74935 8.46724 5.53627 12.2542 10.2077 12.2542H11.3743C11.8576 12.2542 12.2493 11.8624 12.2493 11.3792V9.88288C12.2493 9.50625 12.0083 9.17188 11.651 9.05278L9.79415 8.43381C9.41982 8.30904 9.00828 8.45024 8.78941 8.77855L8.36418 9.4164C8.1453 9.74471 7.73377 9.88591 7.35943 9.76113L6.46962 9.46453C5.55712 9.16036 4.85702 8.42028 4.60394 7.49232L4.23815 6.15112C4.11596 5.70309 4.36506 5.23764 4.80562 5.09079L5.15712 4.97363C5.52484 4.85105 5.74874 4.47917 5.68502 4.09683L5.4158 2.48148C5.34548 2.05956 4.98043 1.75033 4.5527 1.75033H2.62435C2.1411 1.75033 1.74935 2.14208 1.74935 2.62533ZM1.16602 2.62533C1.16602 1.81991 1.81893 1.16699 2.62435 1.16699H4.5527C5.26559 1.16699 5.87399 1.68239 5.99119 2.38558L6.26042 4.00093C6.37133 4.66641 5.98162 5.31368 5.34158 5.52702L4.99009 5.64419C4.84324 5.69314 4.7602 5.84829 4.80093 5.99763L5.16672 7.33884C5.36848 8.07863 5.92662 8.66864 6.65408 8.91113L7.5439 9.20773C7.66868 9.24932 7.80585 9.20226 7.87881 9.09282L8.30404 8.45497C8.66883 7.90779 9.35473 7.67245 9.97862 7.88042L11.8355 8.49938C12.431 8.69788 12.8327 9.25517 12.8327 9.88288V11.3792C12.8327 12.1846 12.1798 12.8375 11.3743 12.8375H10.2077C5.21411 12.8375 1.16602 8.7894 1.16602 3.79583V2.62533Z" fill="white"/>
</svg>
