<svg width="14" height="14" viewBox="0 0 14 14" fill="none" xmlns="http://www.w3.org/2000/svg">
<g clip-path="url(#clip0_1439_1143)">
<path d="M6.56359 2.68721L7 3.46766L7.43641 2.68721C7.71122 2.19576 8.11255 1.78414 8.60038 1.49442C9.08409 1.20715 9.63564 1.04998 10.2002 1.03877C11.111 1.08175 11.9674 1.47782 12.5842 2.14001C13.2041 2.80557 13.5319 3.68588 13.4975 4.58847L13.4972 4.59799V4.60752C13.4972 5.45424 13.1486 6.37657 12.5694 7.31415C11.9935 8.24639 11.2147 9.15335 10.4143 9.95909C8.81435 11.5697 7.17766 12.7267 7.05019 12.8161C7.05014 12.8161 7.05009 12.8161 7.05004 12.8162L7 12.8512L6.95112 12.817C6.95091 12.8168 6.95069 12.8167 6.95047 12.8165C6.81793 12.723 5.18349 11.5669 3.58571 9.95864C2.78529 9.15296 2.00653 8.24612 1.43062 7.31397C0.851424 6.37648 0.502823 5.45424 0.502823 4.60752V4.59799L0.50246 4.58847C0.468051 3.68588 0.795851 2.80557 1.41581 2.14001C2.03263 1.47782 2.88896 1.08175 3.79983 1.03877C4.36436 1.04998 4.91591 1.20715 5.39962 1.49442C5.88745 1.78414 6.28878 2.19576 6.56359 2.68721Z" stroke="white"/>
</g>
<defs>
<clipPath id="clip0_1439_1143">
<rect width="14" height="14" fill="white"/>
</clipPath>
</defs>
</svg>
