<svg width="38" height="38" viewBox="0 0 38 38" fill="none" xmlns="http://www.w3.org/2000/svg">
<path d="M36.4225 17.4436C36.0119 17.4436 35.6181 17.2798 35.3277 16.9881C35.0374 16.6964 34.8743 16.3009 34.8743 15.8884C34.871 12.5897 33.5651 9.42697 31.2432 7.0944C28.9212 4.76184 25.7729 3.44996 22.4892 3.44667C22.0786 3.44667 21.6848 3.28281 21.3945 2.99115C21.1041 2.69949 20.941 2.30392 20.941 1.89145C20.941 1.47898 21.1041 1.0834 21.3945 0.791745C21.6848 0.500085 22.0786 0.336233 22.4892 0.336233C26.5937 0.340761 30.5289 1.98074 33.4312 4.89636C36.3336 7.81197 37.9661 11.7651 37.9706 15.8884C37.9706 16.3009 37.8075 16.6964 37.5172 16.9881C37.2268 17.2798 36.833 17.4436 36.4225 17.4436ZM31.778 15.8884C31.778 13.4136 30.7994 11.0401 29.0574 9.29017C27.3154 7.54021 24.9527 6.5571 22.4892 6.5571C22.0786 6.5571 21.6848 6.72095 21.3945 7.01261C21.1041 7.30427 20.941 7.69985 20.941 8.11231C20.941 8.52478 21.1041 8.92036 21.3945 9.21202C21.6848 9.50368 22.0786 9.66753 22.4892 9.66753C24.1315 9.66753 25.7066 10.3229 26.868 11.4896C28.0293 12.6562 28.6817 14.2385 28.6817 15.8884C28.6817 16.3009 28.8448 16.6964 29.1352 16.9881C29.4255 17.2798 29.8193 17.4436 30.2299 17.4436C30.6405 17.4436 31.0343 17.2798 31.3246 16.9881C31.6149 16.6964 31.778 16.3009 31.778 15.8884ZM35.1576 34.806L36.5664 33.1746C37.4631 32.2709 37.9666 31.047 37.9666 29.771C37.9666 28.4951 37.4631 27.2711 36.5664 26.3674C36.5184 26.3192 32.7936 23.4405 32.7936 23.4405C31.8996 22.5857 30.7122 22.1097 29.4779 22.1114C28.2437 22.1131 27.0576 22.5925 26.166 23.4499L23.2152 25.9475C20.8066 24.9461 18.6186 23.4766 16.777 21.6233C14.9353 19.77 13.4762 17.5695 12.4835 15.1481L14.9606 12.1932C15.8147 11.2977 16.2924 10.1059 16.2944 8.86567C16.2964 7.62542 15.8226 6.4321 14.9714 5.53377C14.9714 5.53377 12.1027 1.79658 12.0547 1.74837C11.1714 0.855283 9.9738 0.347154 8.72065 0.333767C7.4675 0.320381 6.25942 0.802814 5.35742 1.67683L3.57706 3.23205C-6.94102 15.4903 15.7083 38.0673 28.3133 37.6614C29.5861 37.6688 30.8476 37.42 32.0231 36.9296C33.1986 36.4391 34.2645 35.7171 35.1576 34.806Z" fill="white"/>
</svg>
