<svg width="25" height="25" viewBox="0 0 25 25" fill="none" xmlns="http://www.w3.org/2000/svg">
<path d="M22.978 12.0775L23.5036 11.4107L24.0249 12.081L23.5008 12.7478L22.978 12.0775ZM0.763526 12.9469C0.567154 12.9463 0.379032 12.8462 0.240543 12.6686C0.102056 12.4911 0.0245456 12.2506 0.0250648 12.0002C0.025584 11.7497 0.10409 11.5098 0.243311 11.3332C0.382535 11.1566 0.571069 11.0577 0.767441 11.0584L0.763526 12.9469ZM14.6421 0.0493582L23.5036 11.4107L22.4524 12.7443L13.5909 1.38293L14.6421 0.0493582ZM23.5008 12.7478L14.5923 24.0493L13.5467 22.7087L22.4552 11.4072L23.5008 12.7478ZM22.976 13.0218L0.763526 12.9469L0.767441 11.0584L22.9799 11.1332L22.976 13.0218Z" fill="#2E601D"/>
</svg>
