<svg width="625" height="518" viewBox="0 0 625 518" fill="none" xmlns="http://www.w3.org/2000/svg">
<path fill-rule="evenodd" clip-rule="evenodd" d="M43.2778 222.931C210.902 149.9 322.678 101.753 378.605 78.4909C538.289 12.0729 571.469 0.535428 593.096 0.154453C597.853 0.0706614 608.488 1.24949 615.378 6.8396C621.195 11.5598 622.795 17.9361 623.561 22.4113C624.327 26.8866 625.281 37.0813 624.522 45.0472C615.869 135.968 578.426 356.61 559.378 458.443C551.317 501.532 535.447 515.98 520.082 517.394C486.69 520.467 461.335 495.327 428.993 474.127C378.386 440.953 349.796 420.302 300.673 387.93C243.902 350.519 280.704 329.958 313.057 296.354C321.525 287.56 468.647 153.74 471.495 141.601C471.851 140.083 472.182 134.423 468.82 131.435C465.457 128.447 460.495 129.468 456.914 130.281C451.839 131.433 370.993 184.869 214.376 290.59C191.428 306.348 170.643 314.025 152.02 313.623C131.489 313.18 91.9968 302.015 62.6382 292.472C26.6288 280.766 -1.99075 274.578 0.501377 254.699C1.79943 244.344 16.0582 233.755 43.2778 222.931Z" fill="url(#paint0_linear_9_481)"/>
<defs>
<linearGradient id="paint0_linear_9_481" x1="614.45" y1="3.60041" x2="274.05" y2="373.9" gradientUnits="userSpaceOnUse">
<stop stop-color="#2AABEE"/>
<stop offset="1" stop-color="#229ED9"/>
</linearGradient>
</defs>
</svg>
