<svg width="42" height="42" viewBox="0 0 42 42" fill="none" xmlns="http://www.w3.org/2000/svg">
<path d="M21.001 1.83217L19.831 0.91479L21.001 0L22.1709 0.91479L21.001 1.83217ZM22.653 40.7043C22.653 41.0479 22.4789 41.3775 22.169 41.6205C21.8591 41.8635 21.4387 42 21.0005 42C20.5622 42 20.1419 41.8635 19.832 41.6205C19.5221 41.3775 19.348 41.0479 19.348 40.7043H22.653ZM0.000773125 16.4636L19.831 0.91479L22.1709 2.74955L2.34069 18.2984L0.000773125 16.4636ZM22.1709 0.91479L42.0008 16.4636L39.6608 18.2984L19.831 2.74955L22.1709 0.91479ZM22.6535 1.83217L22.653 40.7043H19.348L19.3484 1.83217H22.6535Z" fill="black"/>
</svg>
