<svg width="24" height="28" viewBox="0 0 24 28" fill="none" xmlns="http://www.w3.org/2000/svg">
<path d="M18.6667 27.3333H5.33333C3.86057 27.3333 2.66667 26.1394 2.66667 24.6666V7.33329H0V4.66663H5.33333V3.33329C5.33333 1.86053 6.52724 0.666626 8 0.666626H16C17.4728 0.666626 18.6667 1.86053 18.6667 3.33329V4.66663H24V7.33329H21.3333V24.6666C21.3333 26.1394 20.1394 27.3333 18.6667 27.3333ZM5.33333 7.33329V24.6666H18.6667V7.33329H5.33333ZM8 3.33329V4.66663H16V3.33329H8ZM16 22H13.3333V9.99996H16V22ZM10.6667 22H8V9.99996H10.6667V22Z" fill="#6D7280"/>
</svg>
