<svg width="58" height="58" viewBox="0 0 58 58" fill="none" xmlns="http://www.w3.org/2000/svg">
<path d="M55.3844 42.5741C53.2426 38.7425 47.7252 34.1384 45.4475 32.1349C44.8241 31.5864 44.7574 30.6374 45.3247 30.0307C49.6716 25.3875 53.1484 20.0524 54.3451 16.8286C54.8731 15.4045 53.7801 13.8998 52.2402 13.8998H47.767C46.2926 13.8998 45.4296 14.4259 45.0184 15.2635C41.4058 22.6222 38.3068 25.807 36.1375 27.6683C34.923 28.7109 33.0291 27.8472 33.0291 26.2607C33.0291 23.204 33.0291 19.2527 33.0291 16.4507C33.0291 15.0917 31.9111 13.9922 30.532 13.9922L22.3603 13.8998C21.3317 13.8998 20.7441 15.0574 21.3615 15.8689L22.7107 17.7942C23.2185 18.4613 23.4926 19.2728 23.4926 20.1058L23.4855 28.776C23.4855 30.2843 21.6464 31.0212 20.5546 29.9644C16.8609 26.3887 13.6558 19.0868 12.5021 15.5953C12.1683 14.5846 11.216 13.9022 10.1362 13.8998L5.72968 13.8892C4.07651 13.8892 2.86792 15.4472 3.31727 17.0158C7.34352 31.0639 15.6046 44.4283 30.327 45.8773C31.7776 46.0195 33.0291 44.8584 33.0291 43.4212V38.8645C33.0291 37.5577 34.0601 36.4345 35.3855 36.4014C35.4319 36.4002 35.4784 36.4002 35.5249 36.4002C39.4189 36.4002 43.78 42.0339 45.3057 44.6688C45.7443 45.4271 46.5643 45.8892 47.4511 45.8892H53.3784C55.1079 45.8892 56.2176 44.0658 55.3844 42.5741Z" fill="#0077FF"/>
</svg>
