<svg width="49" height="49" viewBox="0 0 49 49" fill="none" xmlns="http://www.w3.org/2000/svg">
<path fill-rule="evenodd" clip-rule="evenodd" d="M24.3181 48.0542H24.3083C20.3275 48.0528 16.416 47.0541 12.9419 45.1591L0.333008 48.4667L3.70737 36.1414C1.6259 32.5342 0.530639 28.4425 0.532424 24.2504C0.537642 11.1362 11.2077 0.466675 24.3179 0.466675C30.6807 0.469421 36.6527 2.94645 41.1433 7.44236C45.634 11.938 48.1058 17.9139 48.1032 24.2692C48.098 37.3805 37.4322 48.0489 24.3181 48.0542ZM13.5261 40.8531L14.248 41.2816C17.2833 43.0828 20.7627 44.0359 24.3101 44.0372H24.3181C35.2144 44.0372 44.0829 35.1686 44.0872 24.2678C44.0893 18.9854 42.0349 14.0185 38.3025 10.2817C34.57 6.54483 29.6063 4.4859 24.3259 4.48407C13.4212 4.48407 4.55263 13.3519 4.54831 24.2518C4.54677 27.9873 5.59196 31.6252 7.57091 34.7727L8.04096 35.5207L6.04382 42.8159L13.5261 40.8531ZM35.487 29.3901C35.9015 29.5904 36.1814 29.7257 36.301 29.9252C36.4495 30.173 36.4495 31.3629 35.9545 32.7514C35.459 34.1396 33.0848 35.4067 31.9428 35.5772C30.919 35.7303 29.6232 35.7942 28.1996 35.3417C27.3364 35.0679 26.2295 34.7022 24.8115 34.0898C19.24 31.684 15.4747 26.284 14.7631 25.2634C14.7133 25.1919 14.6784 25.1419 14.6589 25.1159L14.6541 25.1095C14.3396 24.6899 12.2322 21.8781 12.2322 18.968C12.2322 16.2304 13.5769 14.7955 14.1959 14.135C14.2383 14.0898 14.2773 14.0482 14.3123 14.01C14.857 13.415 15.5009 13.2663 15.8971 13.2663C16.2932 13.2663 16.6899 13.2699 17.0361 13.2873C17.0789 13.2895 17.1233 13.2892 17.1693 13.2889C17.5156 13.2869 17.9474 13.2844 18.3733 14.3075C18.5372 14.7013 18.777 15.2851 19.0299 15.9008C19.5413 17.1458 20.1063 18.5213 20.2057 18.7204C20.3543 19.0179 20.4533 19.3648 20.2552 19.7616C20.2255 19.8211 20.198 19.8773 20.1717 19.9309C20.0229 20.2347 19.9135 20.4581 19.6609 20.753C19.5616 20.8689 19.459 20.9939 19.3564 21.1189C19.1519 21.3679 18.9475 21.6169 18.7694 21.7942C18.4719 22.0906 18.1622 22.4121 18.5089 23.0071C18.8556 23.6021 20.0483 25.5482 21.8151 27.1241C23.7143 28.8182 25.365 29.5342 26.2016 29.8971C26.365 29.968 26.4974 30.0254 26.5945 30.074C27.1886 30.3715 27.5353 30.3217 27.882 29.9252C28.2287 29.5286 29.3676 28.1898 29.7638 27.5949C30.1599 27.0001 30.5562 27.0992 31.1009 27.2974C31.6458 27.496 34.5677 28.9335 35.162 29.231C35.278 29.2891 35.3865 29.3415 35.487 29.3901Z" fill="#FDFDFD"/>
</svg>
