<svg width="49" height="36" viewBox="0 0 49 36" fill="none" xmlns="http://www.w3.org/2000/svg">
<path d="M47.6355 6.33328C47.1836 3.8897 45.0303 2.11019 42.5313 1.55463C38.7918 0.777723 31.8709 0.222168 24.383 0.222168C16.8994 0.222168 9.86784 0.777723 6.12386 1.55463C3.62934 2.11019 1.47157 3.77686 1.01963 6.33328C0.563265 9.11106 0.111328 12.9999 0.111328 17.9999C0.111328 22.9999 0.563265 26.8888 1.1304 29.6666C1.58677 32.1102 3.74011 33.8897 6.23462 34.4453C10.2046 35.2222 17.0102 35.7777 24.4982 35.7777C31.9861 35.7777 38.7918 35.2222 42.7617 34.4453C45.2562 33.8897 47.4096 32.223 47.8659 29.6666C48.3179 26.8888 48.885 22.8871 49.0002 17.9999C48.7698 12.9999 48.2027 9.11106 47.6355 6.33328ZM18.2597 25.7777V10.2222L32.0969 17.9999L18.2597 25.7777Z" fill="#FF0000"/>
</svg>
