<svg width="182" height="27" viewBox="0 0 182 27" fill="none" xmlns="http://www.w3.org/2000/svg">
<path d="M10.252 16.877H3.73047V12.7637H10.252C11.2598 12.7637 12.0801 12.5996 12.7129 12.2715C13.3457 11.9316 13.8086 11.4629 14.1016 10.8652C14.3945 10.2676 14.541 9.59375 14.541 8.84375C14.541 8.08203 14.3945 7.37305 14.1016 6.7168C13.8086 6.06055 13.3457 5.5332 12.7129 5.13477C12.0801 4.73633 11.2598 4.53711 10.252 4.53711H5.55859V26H0.285156V0.40625H10.252C12.2559 0.40625 13.9727 0.769531 15.4023 1.49609C16.8438 2.21094 17.9453 3.20117 18.707 4.4668C19.4688 5.73242 19.8496 7.17969 19.8496 8.80859C19.8496 10.4609 19.4688 11.8906 18.707 13.0977C17.9453 14.3047 16.8438 15.2363 15.4023 15.8926C13.9727 16.5488 12.2559 16.877 10.252 16.877ZM37.6211 0.40625H42.877V17.3164C42.877 19.2852 42.4551 20.9434 41.6113 22.291C40.7793 23.6387 39.625 24.6523 38.1484 25.332C36.6836 26.0117 34.9961 26.3516 33.0859 26.3516C31.1758 26.3516 29.4766 26.0117 27.9883 25.332C26.5117 24.6523 25.3516 23.6387 24.5078 22.291C23.6758 20.9434 23.2598 19.2852 23.2598 17.3164V0.40625H28.5332V17.3164C28.5332 18.4648 28.7148 19.4023 29.0781 20.1289C29.4414 20.8555 29.9629 21.3887 30.6426 21.7285C31.334 22.0684 32.1484 22.2383 33.0859 22.2383C34.0469 22.2383 34.8613 22.0684 35.5293 21.7285C36.209 21.3887 36.7246 20.8555 37.0762 20.1289C37.4395 19.4023 37.6211 18.4648 37.6211 17.3164V0.40625ZM60.543 19.3027C60.543 18.8457 60.4727 18.4355 60.332 18.0723C60.2031 17.6973 59.957 17.3574 59.5938 17.0527C59.2305 16.7363 58.7207 16.4258 58.0645 16.1211C57.4082 15.8164 56.5586 15.5 55.5156 15.1719C54.3555 14.7969 53.2539 14.375 52.2109 13.9062C51.1797 13.4375 50.2656 12.8926 49.4688 12.2715C48.6836 11.6387 48.0625 10.9062 47.6055 10.0742C47.1602 9.24219 46.9375 8.27539 46.9375 7.17383C46.9375 6.10742 47.1719 5.14062 47.6406 4.27344C48.1094 3.39453 48.7656 2.64453 49.6094 2.02344C50.4531 1.39062 51.4492 0.904297 52.5977 0.564453C53.7578 0.224609 55.0293 0.0546875 56.4121 0.0546875C58.2988 0.0546875 59.9453 0.394531 61.3516 1.07422C62.7578 1.75391 63.8477 2.68555 64.6211 3.86914C65.4062 5.05273 65.7988 6.40625 65.7988 7.92969H60.5605C60.5605 7.17969 60.4023 6.52344 60.0859 5.96094C59.7812 5.38672 59.3125 4.93555 58.6797 4.60742C58.0586 4.2793 57.2734 4.11523 56.3242 4.11523C55.4102 4.11523 54.6484 4.25586 54.0391 4.53711C53.4297 4.80664 52.9727 5.17578 52.668 5.64453C52.3633 6.10156 52.2109 6.61719 52.2109 7.19141C52.2109 7.625 52.3164 8.01758 52.5273 8.36914C52.75 8.7207 53.0781 9.04883 53.5117 9.35352C53.9453 9.6582 54.4785 9.94531 55.1113 10.2148C55.7441 10.4844 56.4766 10.748 57.3086 11.0059C58.7031 11.4277 59.9277 11.9023 60.9824 12.4297C62.0488 12.957 62.9395 13.5488 63.6543 14.2051C64.3691 14.8613 64.9082 15.6055 65.2715 16.4375C65.6348 17.2695 65.8164 18.2129 65.8164 19.2676C65.8164 20.3809 65.5996 21.377 65.166 22.2559C64.7324 23.1348 64.1055 23.8789 63.2852 24.4883C62.4648 25.0977 61.4863 25.5605 60.3496 25.877C59.2129 26.1934 57.9414 26.3516 56.5352 26.3516C55.2695 26.3516 54.0215 26.1875 52.791 25.8594C51.5605 25.5195 50.4414 25.0098 49.4336 24.3301C48.4375 23.6504 47.6406 22.7832 47.043 21.7285C46.4453 20.6738 46.1465 19.4258 46.1465 17.9844H51.4375C51.4375 18.7812 51.5605 19.4551 51.8066 20.0059C52.0527 20.5566 52.3984 21.002 52.8438 21.3418C53.3008 21.6816 53.8398 21.9277 54.4609 22.0801C55.0938 22.2324 55.7852 22.3086 56.5352 22.3086C57.4492 22.3086 58.1992 22.1797 58.7852 21.9219C59.3828 21.6641 59.8223 21.3066 60.1035 20.8496C60.3965 20.3926 60.543 19.877 60.543 19.3027ZM86.4707 10.8301V14.9434H73.1113V10.8301H86.4707ZM74.6758 0.40625V26H69.4023V0.40625H74.6758ZM90.2324 0.40625V26H84.9766V0.40625H90.2324ZM100.428 0.40625V26H95.1719V0.40625H100.428ZM118.691 19.3027C118.691 18.8457 118.621 18.4355 118.48 18.0723C118.352 17.6973 118.105 17.3574 117.742 17.0527C117.379 16.7363 116.869 16.4258 116.213 16.1211C115.557 15.8164 114.707 15.5 113.664 15.1719C112.504 14.7969 111.402 14.375 110.359 13.9062C109.328 13.4375 108.414 12.8926 107.617 12.2715C106.832 11.6387 106.211 10.9062 105.754 10.0742C105.309 9.24219 105.086 8.27539 105.086 7.17383C105.086 6.10742 105.32 5.14062 105.789 4.27344C106.258 3.39453 106.914 2.64453 107.758 2.02344C108.602 1.39062 109.598 0.904297 110.746 0.564453C111.906 0.224609 113.178 0.0546875 114.561 0.0546875C116.447 0.0546875 118.094 0.394531 119.5 1.07422C120.906 1.75391 121.996 2.68555 122.77 3.86914C123.555 5.05273 123.947 6.40625 123.947 7.92969H118.709C118.709 7.17969 118.551 6.52344 118.234 5.96094C117.93 5.38672 117.461 4.93555 116.828 4.60742C116.207 4.2793 115.422 4.11523 114.473 4.11523C113.559 4.11523 112.797 4.25586 112.188 4.53711C111.578 4.80664 111.121 5.17578 110.816 5.64453C110.512 6.10156 110.359 6.61719 110.359 7.19141C110.359 7.625 110.465 8.01758 110.676 8.36914C110.898 8.7207 111.227 9.04883 111.66 9.35352C112.094 9.6582 112.627 9.94531 113.26 10.2148C113.893 10.4844 114.625 10.748 115.457 11.0059C116.852 11.4277 118.076 11.9023 119.131 12.4297C120.197 12.957 121.088 13.5488 121.803 14.2051C122.518 14.8613 123.057 15.6055 123.42 16.4375C123.783 17.2695 123.965 18.2129 123.965 19.2676C123.965 20.3809 123.748 21.377 123.314 22.2559C122.881 23.1348 122.254 23.8789 121.434 24.4883C120.613 25.0977 119.635 25.5605 118.498 25.877C117.361 26.1934 116.09 26.3516 114.684 26.3516C113.418 26.3516 112.17 26.1875 110.939 25.8594C109.709 25.5195 108.59 25.0098 107.582 24.3301C106.586 23.6504 105.789 22.7832 105.191 21.7285C104.594 20.6738 104.295 19.4258 104.295 17.9844H109.586C109.586 18.7812 109.709 19.4551 109.955 20.0059C110.201 20.5566 110.547 21.002 110.992 21.3418C111.449 21.6816 111.988 21.9277 112.609 22.0801C113.242 22.2324 113.934 22.3086 114.684 22.3086C115.598 22.3086 116.348 22.1797 116.934 21.9219C117.531 21.6641 117.971 21.3066 118.252 20.8496C118.545 20.3926 118.691 19.877 118.691 19.3027ZM144.619 10.8301V14.9434H131.26V10.8301H144.619ZM132.824 0.40625V26H127.551V0.40625H132.824ZM148.381 0.40625V26H143.125V0.40625H148.381ZM158.242 0.40625V26H152.969V0.40625H158.242ZM173.57 0.40625L163.428 13.0449L157.574 19.3379L156.625 14.3457L160.58 8.93164L167.102 0.40625H173.57ZM167.576 26L160.035 14.1699L163.938 10.9004L173.816 26H167.576ZM181.463 0.40625V26H176.207V0.40625H181.463Z" fill="white"/>
</svg>
